<mxfile host="65bd71144e">
    <diagram id="bhLh6pWA36SdqNL8CHpa" name="01 - api">
        <mxGraphModel dx="1492" dy="842" grid="1" gridSize="10" guides="1" tooltips="1" connect="1" arrows="1" fold="1" page="1" pageScale="1" pageWidth="1169" pageHeight="827" math="0" shadow="0">
            <root>
                <mxCell id="0"/>
                <mxCell id="1" parent="0"/>
                <mxCell id="19" value="class User" style="rounded=0;whiteSpace=wrap;html=1;fontSize=18;align=center;fillColor=#dae8fc;strokeColor=#6c8ebf;fontStyle=1" vertex="1" parent="1">
                    <mxGeometry x="410" y="250" width="190" height="28" as="geometry"/>
                </mxCell>
                <mxCell id="20" value="get()" style="rounded=0;whiteSpace=wrap;html=1;fontSize=18;align=center;fontStyle=0;" vertex="1" parent="1">
                    <mxGeometry x="410" y="278" width="190" height="42" as="geometry"/>
                </mxCell>
                <mxCell id="21" value="set()" style="rounded=0;whiteSpace=wrap;html=1;fontSize=18;align=center;fontStyle=0" vertex="1" parent="1">
                    <mxGeometry x="410" y="320" width="190" height="42" as="geometry"/>
                </mxCell>
                <mxCell id="22" value="on()" style="rounded=0;whiteSpace=wrap;html=1;fontSize=18;align=center;fontStyle=0;" vertex="1" parent="1">
                    <mxGeometry x="410" y="362" width="190" height="42" as="geometry"/>
                </mxCell>
                <mxCell id="23" value="trigger()" style="rounded=0;whiteSpace=wrap;html=1;fontSize=18;align=center;fontStyle=0;" vertex="1" parent="1">
                    <mxGeometry x="410" y="404" width="190" height="42" as="geometry"/>
                </mxCell>
                <mxCell id="24" value="fetch()" style="rounded=0;whiteSpace=wrap;html=1;fontSize=18;align=center;fontStyle=0" vertex="1" parent="1">
                    <mxGeometry x="410" y="446" width="190" height="42" as="geometry"/>
                </mxCell>
                <mxCell id="25" value="save()" style="rounded=0;whiteSpace=wrap;html=1;fontSize=18;align=center;fontStyle=0" vertex="1" parent="1">
                    <mxGeometry x="410" y="488" width="190" height="42" as="geometry"/>
                </mxCell>
                <mxCell id="26" value="class Attributes&amp;lt;T&amp;gt;" style="rounded=0;whiteSpace=wrap;html=1;fontSize=18;align=center;fillColor=#dae8fc;strokeColor=#6c8ebf;fontStyle=1" vertex="1" parent="1">
                    <mxGeometry x="680" y="210" width="330" height="28" as="geometry"/>
                </mxCell>
                <mxCell id="27" value="get(key: K): T[K]" style="rounded=0;whiteSpace=wrap;html=1;fontSize=18;align=center;fontStyle=0" vertex="1" parent="1">
                    <mxGeometry x="680" y="238" width="330" height="42" as="geometry"/>
                </mxCell>
                <mxCell id="28" value="set(update: T): void" style="rounded=0;whiteSpace=wrap;html=1;fontSize=18;align=center;fontStyle=0" vertex="1" parent="1">
                    <mxGeometry x="680" y="280" width="330" height="42" as="geometry"/>
                </mxCell>
                <mxCell id="29" value="class Eventing" style="rounded=0;whiteSpace=wrap;html=1;fontSize=18;align=center;fillColor=#dae8fc;strokeColor=#6c8ebf;fontStyle=1" vertex="1" parent="1">
                    <mxGeometry x="680" y="348" width="330" height="28" as="geometry"/>
                </mxCell>
                <mxCell id="30" value="on(eventName: string, callback: () =&amp;gt; {})" style="rounded=0;whiteSpace=wrap;html=1;fontSize=18;align=center;fontStyle=0" vertex="1" parent="1">
                    <mxGeometry x="680" y="376" width="330" height="42" as="geometry"/>
                </mxCell>
                <mxCell id="31" value="trigger(eventName: string): void" style="rounded=0;whiteSpace=wrap;html=1;fontSize=18;align=center;fontStyle=0" vertex="1" parent="1">
                    <mxGeometry x="680" y="418" width="330" height="42" as="geometry"/>
                </mxCell>
                <mxCell id="32" value="class Sync&amp;lt;T&amp;gt;" style="rounded=0;whiteSpace=wrap;html=1;fontSize=18;align=center;fillColor=#dae8fc;strokeColor=#6c8ebf;fontStyle=1" vertex="1" parent="1">
                    <mxGeometry x="680" y="490" width="330" height="28" as="geometry"/>
                </mxCell>
                <mxCell id="33" value="fetch(id: number): Promise" style="rounded=0;whiteSpace=wrap;html=1;fontSize=18;align=center;fontStyle=0" vertex="1" parent="1">
                    <mxGeometry x="680" y="518" width="330" height="42" as="geometry"/>
                </mxCell>
                <mxCell id="34" value="save(data: T): Promise" style="rounded=0;whiteSpace=wrap;html=1;fontSize=18;align=center;fontStyle=0" vertex="1" parent="1">
                    <mxGeometry x="680" y="560" width="330" height="42" as="geometry"/>
                </mxCell>
                <mxCell id="35" value="Caller" style="rounded=0;whiteSpace=wrap;html=1;fontSize=18;align=center;fontStyle=1;fillColor=#d5e8d4;strokeColor=#82b366;" vertex="1" parent="1">
                    <mxGeometry x="170" y="362" width="130" height="42" as="geometry"/>
                </mxCell>
            </root>
        </mxGraphModel>
    </diagram>
</mxfile>